<svg xmlns="http://www.w3.org/2000/svg" viewBox="0 0 73.083 86.877" xmlns:v="https://vecta.io/nano"><g fill="none" stroke="currentColor" stroke-miterlimit="10"><path d="M14.612 65.102s8.154-13.884 14.545-9.476 7.057 9.697 11.792 8.595 6.94-6.51 13.11-2.424c6.073 4.021 10.409 4.628 10.409 4.628" stroke-width="2"/><path d="M15.033 25.963C8.725 29.925-.605 37.664.607 40.897c1.535 4.093 19.874.702 25.044-.311m29.822-13.395c4.5-2.845 18.434-11.635 17.009-15.176-1.028-2.553-9.403-1.594-14.993-.952"/><path d="M34.73 60.073s11.395-9.279 16.5-10.135c6.729-1.128 13.238 8.347 13.238 8.347" stroke-width="2"/><path d="M38.3 3h2.48a23.69 23.69 0 0 1 23.688 23.688V60.19A23.69 23.69 0 0 1 40.78 83.877H38.3A23.69 23.69 0 0 1 14.612 60.19V26.688C14.612 13.605 25.217 3 38.3 3z" stroke-width="6"/></g><path d="M51.851 28.013a4.6 4.6 0 0 0-3.399.245c-1.979.702-3.998 1.573-5.971 2.48l-10.338-6.909-1.544 1.341 6.706 7.717-7.117 3.656c-.949-.815-2.498-1.936-3.05-.6a1.53 1.53 0 0 0-.067.962l1.984 4.777c.169.283.424.505.729.631 1.336.552 1.635-1.337 1.727-2.584l7.613-2.462.734 10.197 2.039-.147 2.401-12.2 5.971-2.48a4.6 4.6 0 0 0 2.572-2.235c.221-.444.239-.962.048-1.42s-.57-.811-1.04-.968z" fill="currentColor"/></svg>