<svg xmlns="http://www.w3.org/2000/svg" viewBox="0 0 419.771 70.902" xmlns:v="https://vecta.io/nano"><path d="M0 55.163l5.537-3.34q5.844 10.768 13.491 10.767a13.02 13.02 0 0 0 6.196-1.538 10.81 10.81 0 0 0 4.395-4.087c.982-1.648 1.498-3.531 1.494-5.449-.049-2.315-.817-4.557-2.197-6.416q-3.076-4.351-11.206-8.877-8.174-6.152-10.107-8.921a16.14 16.14 0 0 1-3.472-9.976 15.09 15.09 0 0 1 2.021-7.734c1.366-2.332 3.351-4.241 5.735-5.515 2.469-1.361 5.245-2.064 8.064-2.043a16.87 16.87 0 0 1 8.569 2.307q3.998 2.307 8.482 8.416l-5.317 3.999q-3.648-4.834-6.24-6.394a10.8 10.8 0 0 0-5.669-1.56c-2.372-.089-4.682.773-6.416 2.395-1.632 1.51-2.544 3.644-2.505 5.867.003 1.423.303 2.83.879 4.131.796 1.632 1.9 3.094 3.252 4.307q1.274 1.275 8.438 6.548 8.437 6.24 11.58 10.327c2.032 2.546 3.14 5.707 3.142 8.965.024 4.691-1.93 9.174-5.383 12.349-3.471 3.44-8.188 5.327-13.074 5.23-3.838.043-7.601-1.059-10.81-3.164Q4.042 62.59 0 55.163z" fill="#1c2849"/><path d="M50.537 3.176h37.353v6.416h-30.85v20.391H75.85v6.328H57.041v25.576h30.586v6.46h-37.09z" fill="#1f345d"/><path d="M100.679 3h12.964q11.206 0 15.073.967a16.79 16.79 0 0 1 9.141 5.669 16.36 16.36 0 0 1 3.516 10.767c.146 3.862-1.076 7.651-3.45 10.701a16.89 16.89 0 0 1-9.514 5.691q-4.439 1.055-16.567 1.055h-4.658v30.322h-6.504zm6.504 6.328v22.148l11.074.132q6.635 0 9.734-1.209a9.99 9.99 0 0 0 4.878-3.955c2.373-3.687 2.373-8.42 0-12.107-1.11-1.753-2.749-3.107-4.68-3.867q-2.9-1.142-9.492-1.142z" fill="#154075"/><path d="M147.876 9.504V3.176h35.771v6.328h-14.59v58.843h-6.636V9.504z" fill="#005087"/><path d="M258.668 9.504V3.176h35.772v6.328h-14.59v58.843h-6.637V9.504z" fill="#3b7ca7"/><path d="M304.062 3.176h12.965q10.854 0 14.721.879c3.701.778 7.031 2.784 9.449 5.691 2.47 3.025 3.765 6.841 3.647 10.745a17.26 17.26 0 0 1-2.504 9.36 15.82 15.82 0 0 1-7.186 6.087c-2.53 1.246-5.29 1.957-8.107 2.087l18.676 30.322h-7.998l-18.676-30.321h-8.483v30.322h-6.504zm6.504 6.372v22.148l11.207.088q6.504 0 9.647-1.23a9.89 9.89 0 0 0 4.877-3.955c1.159-1.824 1.763-3.947 1.736-6.108.017-2.111-.603-4.179-1.779-5.933a10.02 10.02 0 0 0-4.637-3.845q-2.856-1.164-9.58-1.165z" fill="#5494be"/><path d="M357.764 3.176h6.504v65.171h-6.504z" fill="#73abcf"/><path d="M379.078 3h12.963q11.206 0 15.074.967a16.79 16.79 0 0 1 9.141 5.669 16.36 16.36 0 0 1 3.516 10.767 16.41 16.41 0 0 1-3.449 10.701c-2.441 2.913-5.794 4.918-9.516 5.691q-4.438 1.055-16.566 1.055h-4.658v30.322h-6.504zm6.504 6.328v22.148l11.074.132q6.636 0 9.734-1.209a9.99 9.99 0 0 0 4.877-3.955 11.19 11.19 0 0 0 0-12.107 9.77 9.77 0 0 0-4.68-3.867q-2.9-1.142-9.492-1.142z" fill="#8ec1e2"/><g fill="none" stroke="#165187" stroke-miterlimit="10"><path d="M199.61 52.835s6.543-11.141 11.672-7.604 5.663 7.781 9.463 6.897 5.569-5.224 10.52-1.945c4.873 3.227 8.353 3.714 8.353 3.714" stroke-width="2"/><path d="M199.947 21.427c-5.062 3.18-12.548 9.39-11.576 11.984 1.232 3.284 15.948.563 20.097-.25m23.931-10.749c3.611-2.283 14.792-9.337 13.649-12.178-.825-2.049-7.546-1.279-12.031-.764"/><path d="M215.754 48.799s9.144-7.446 13.241-8.133c5.4-.905 10.623 6.698 10.623 6.698" stroke-width="2"/><path d="M218.619 3h1.99a19.01 19.01 0 0 1 19.009 19.009v26.884a19.01 19.01 0 0 1-19.009 19.009h-1.99a19.01 19.01 0 0 1-19.009-19.009V22.009A19.01 19.01 0 0 1 218.619 3z" stroke-width="6"/></g><path d="M229.493 23.072a3.69 3.69 0 0 0-2.728.196c-1.588.564-3.208 1.262-4.792 1.99l-8.296-5.544-1.239 1.076 5.381 6.193-5.711 2.934c-.762-.654-2.005-1.553-2.447-.482a1.23 1.23 0 0 0-.054.772l1.592 3.833a1.23 1.23 0 0 0 .585.506c1.072.443 1.312-1.073 1.386-2.074l6.109-1.975.589 8.183 1.637-.118 1.927-9.79 4.792-1.99a3.69 3.69 0 0 0 2.064-1.794c.177-.356.192-.772.039-1.14s-.457-.651-.835-.777z" fill="#165187"/></svg>