<?xml version="1.0" standalone="no"?>
<!DOCTYPE svg PUBLIC "-//W3C//DTD SVG 20010904//EN"
 "http://www.w3.org/TR/2001/REC-SVG-20010904/DTD/svg10.dtd">
<svg version="1.0" xmlns="http://www.w3.org/2000/svg"
 width="768.000000pt" height="768.000000pt" viewBox="0 0 768.000000 768.000000"
 preserveAspectRatio="xMidYMid meet">
<metadata>
Created by potrace 1.14, written by Peter Selinger 2001-2017
</metadata>
<g transform="translate(0.000000,768.000000) scale(0.100000,-0.100000)"
fill="#000000" stroke="none">
<path d="M1422 7248 c-64 -56 -122 -107 -128 -113 -6 -5 -36 -31 -65 -57 -30
-25 -65 -56 -79 -68 -14 -12 -49 -42 -77 -67 l-52 -45 47 -57 c26 -31 58 -68
72 -83 14 -14 43 -48 65 -74 22 -26 45 -52 50 -58 6 -6 39 -45 74 -86 36 -41
70 -79 75 -85 6 -5 31 -35 56 -64 25 -30 54 -65 65 -76 18 -20 77 -87 122
-141 24 -28 122 -140 153 -175 14 -15 34 -39 45 -52 11 -13 45 -53 76 -88 31
-35 69 -80 85 -99 16 -19 36 -42 44 -50 8 -9 38 -42 65 -74 28 -33 64 -74 81
-93 18 -18 46 -51 64 -73 17 -21 42 -50 53 -63 12 -13 33 -37 47 -53 14 -16
54 -63 90 -104 36 -41 76 -88 90 -104 14 -16 30 -34 35 -40 6 -6 53 -60 105
-121 52 -60 99 -115 105 -121 5 -6 35 -40 65 -75 30 -35 69 -79 86 -98 l32
-35 -137 -69 c-75 -38 -140 -73 -146 -78 -5 -5 -17 -9 -26 -9 -10 0 -19 -3
-21 -7 -5 -12 -108 -64 -108 -56 0 5 -4 3 -8 -3 -4 -6 -47 -31 -97 -56 -49
-25 -160 -81 -245 -125 -165 -85 -496 -255 -695 -357 -66 -33 -121 -64 -123
-68 -2 -5 -9 -8 -16 -8 -7 0 -46 -18 -87 -41 -41 -23 -78 -42 -84 -43 -5 -1
-14 -4 -20 -8 -60 -37 -169 -87 -178 -81 -13 8 -139 105 -147 113 -3 3 -12 10
-21 15 -10 6 -37 24 -62 41 -118 83 -267 149 -360 160 -28 3 -54 7 -57 7 -29
6 -116 -19 -154 -43 -60 -39 -88 -70 -125 -145 -41 -82 -51 -134 -47 -240 4
-86 7 -99 56 -210 5 -11 27 -65 50 -120 37 -91 61 -148 96 -230 7 -16 22 -55
34 -85 12 -30 28 -68 35 -85 8 -16 42 -97 76 -180 33 -82 67 -163 74 -180 7
-16 35 -82 61 -145 126 -309 117 -291 181 -360 111 -121 286 -177 416 -134 94
31 204 170 242 307 2 4 3 8 5 10 1 1 3 9 5 17 2 8 11 40 19 70 8 30 17 71 20
90 3 19 8 46 10 60 11 65 19 129 22 169 1 24 6 47 11 52 8 8 354 122 408 135
17 4 35 10 40 15 6 4 22 10 35 13 14 3 81 24 150 46 69 23 130 43 135 44 6 2
17 6 25 9 24 9 154 51 165 53 6 1 82 26 170 55 88 29 162 54 165 54 3 1 32 10
65 20 33 11 62 20 65 20 3 1 12 4 20 8 18 7 122 40 133 43 4 1 9 3 12 4 3 1 8
3 13 4 4 1 54 17 112 36 58 18 110 35 115 36 6 1 71 23 145 48 74 25 135 44
137 43 5 -6 18 -150 29 -327 8 -136 15 -236 19 -275 3 -22 7 -80 10 -130 6
-87 9 -134 20 -275 2 -36 7 -96 9 -135 3 -38 8 -101 11 -140 5 -80 14 -204 20
-285 2 -30 7 -93 10 -140 3 -47 8 -112 10 -145 2 -33 7 -96 10 -140 3 -44 8
-102 10 -130 2 -27 6 -86 10 -130 9 -120 14 -201 20 -295 3 -47 7 -103 9 -125
7 -61 19 -248 18 -268 -1 -19 11 -19 213 -2 33 3 96 8 140 10 167 11 338 24
340 27 1 3 44 227 50 263 2 11 4 20 5 20 1 0 3 9 5 20 1 11 6 36 9 55 4 19 9
46 11 60 3 14 9 43 14 65 5 22 12 56 15 75 3 19 8 46 11 60 5 26 11 53 21 105
3 17 14 73 25 125 11 52 22 111 25 130 2 19 9 51 14 70 5 19 11 53 15 75 3 22
7 47 10 55 2 8 6 26 9 40 5 28 37 197 41 220 2 8 4 15 5 15 1 0 3 9 5 20 7 48
18 105 32 170 17 81 18 88 27 135 3 19 8 46 11 60 7 33 14 68 20 105 4 17 12
62 20 100 8 39 17 84 19 100 3 17 21 107 40 200 19 94 37 188 40 210 4 22 9
48 12 57 6 21 13 53 20 98 3 19 7 42 9 50 2 8 7 29 10 47 3 18 12 63 20 100 9
37 17 82 20 98 2 17 6 42 9 58 9 43 16 75 20 100 2 12 7 33 10 47 3 14 8 36
10 50 3 14 10 48 15 75 6 28 13 64 16 80 7 44 21 107 32 148 2 9 9 17 14 17
15 0 520 191 604 229 11 5 79 32 150 61 205 82 299 121 345 145 14 7 27 13 30
14 13 1 296 126 457 202 103 49 156 72 163 74 15 3 181 91 218 116 24 16 45
29 48 29 7 0 76 51 89 65 6 6 17 16 26 21 41 22 155 134 213 206 76 95 148
236 170 333 18 80 15 230 -4 291 -32 99 -68 153 -156 240 -85 84 -229 152
-379 180 -51 9 -244 20 -265 14 -3 -1 -24 -3 -47 -5 -66 -6 -114 -13 -173 -24
-64 -13 -303 -82 -310 -90 -4 -5 -115 -47 -145 -55 -5 -2 -19 -7 -30 -11 -11
-4 -56 -21 -100 -37 -84 -31 -140 -52 -190 -73 -16 -7 -70 -28 -120 -46 -49
-18 -92 -36 -95 -39 -3 -3 -23 -11 -45 -19 -22 -7 -58 -22 -79 -32 -22 -11
-43 -19 -48 -19 -4 0 -33 -12 -65 -26 -65 -30 -91 -41 -180 -78 -35 -14 -86
-37 -115 -50 -29 -13 -87 -38 -128 -56 -73 -32 -109 -48 -255 -113 -38 -17
-72 -34 -75 -37 -3 -3 -14 -7 -25 -8 -11 -2 -22 -7 -25 -12 -3 -4 -15 -10 -27
-14 -18 -6 -55 15 -179 98 -86 58 -160 106 -164 106 -5 0 -10 4 -12 8 -1 5
-64 48 -138 97 -74 49 -136 92 -138 97 -2 4 -8 8 -12 8 -12 0 -104 62 -108 72
-2 4 -10 8 -18 8 -8 0 -14 4 -14 9 0 5 -11 12 -25 15 -14 4 -25 11 -25 17 0 5
-8 13 -17 17 -10 4 -64 39 -121 77 -57 39 -111 75 -120 80 -31 19 -77 50 -82
55 -3 3 -30 21 -60 40 -30 19 -56 38 -58 42 -2 5 -10 8 -17 8 -7 0 -15 3 -17
8 -4 8 -96 72 -104 72 -4 0 -23 14 -44 30 -21 17 -43 30 -49 30 -6 0 -11 4
-11 8 0 5 -12 15 -27 23 -16 8 -30 16 -33 19 -12 12 -66 47 -82 53 -10 3 -18
11 -18 16 0 5 -13 14 -30 20 -16 5 -30 15 -30 21 0 6 -4 8 -10 5 -5 -3 -10 -2
-10 2 0 5 -22 22 -50 38 -27 16 -50 33 -50 37 0 4 -4 8 -10 8 -11 0 -164 102
-168 112 -2 5 -8 8 -12 8 -5 0 -38 20 -73 45 -36 25 -69 45 -75 45 -6 0 -12 4
-14 8 -2 7 -598 409 -776 524 l-42 28 -118 -102z"/>
</g>
</svg>
